<svg xmlns="http://www.w3.org/2000/svg" viewBox="0 0 1200 630" width="1200" height="630" role="img" aria-label="from wordpress to nextjs">
  <title>from wordpress to nextjs</title>
  <defs>
    <linearGradient id="sky" x1="0" y1="0" x2="0.35" y2="1">
      <stop offset="0" stop-color="#0a1522" />
      <stop offset="0.55" stop-color="#0c1b2b" />
      <stop offset="1" stop-color="#050b13" />
    </linearGradient>
    <radialGradient id="planet" cx="0.34" cy="0.3" r="0.85">
      <stop offset="0" stop-color="#c084fc" stop-opacity="0.95" />
      <stop offset="0.55" stop-color="#c084fc" stop-opacity="0.42" />
      <stop offset="1" stop-color="#04080e" stop-opacity="0.9" />
    </radialGradient>
    <radialGradient id="halo" cx="0.5" cy="0.5" r="0.5">
      <stop offset="0" stop-color="#c084fc" stop-opacity="0.34" />
      <stop offset="1" stop-color="#c084fc" stop-opacity="0" />
    </radialGradient>
    <linearGradient id="fade" x1="0" y1="0" x2="0" y2="1">
      <stop offset="0" stop-color="#050b13" stop-opacity="0" />
      <stop offset="1" stop-color="#050b13" stop-opacity="0.9" />
    </linearGradient>
  </defs>

  <rect width="1200" height="630" fill="url(#sky)" />
  <circle cx="852.57" cy="466.7" r="1.26" fill="#dce9f5" opacity="0.48" /><circle cx="215.44" cy="62.8" r="0.73" fill="#dce9f5" opacity="0.28" /><circle cx="1122.99" cy="507.96" r="2.08" fill="#dce9f5" opacity="0.62" /><circle cx="1122.99" cy="507.96" r="7.07" fill="#dce9f5" opacity="0.05" /><circle cx="774.24" cy="17.91" r="1.1" fill="#dce9f5" opacity="0.32" /><circle cx="380.13" cy="506.75" r="1.47" fill="#dce9f5" opacity="0.43" /><circle cx="602.32" cy="365.56" r="0.69" fill="#dce9f5" opacity="0.41" /><circle cx="139.94" cy="11.73" r="1.42" fill="#dce9f5" opacity="0.59" /><circle cx="391.21" cy="109.75" r="1.23" fill="#dce9f5" opacity="0.32" /><circle cx="304.52" cy="81.54" r="0.52" fill="#dce9f5" opacity="0.65" /><circle cx="854.55" cy="564.36" r="1.95" fill="#dce9f5" opacity="0.21" /><circle cx="854.55" cy="564.36" r="6.63" fill="#dce9f5" opacity="0.02" /><circle cx="517.16" cy="113.13" r="1.24" fill="#dce9f5" opacity="0.63" /><circle cx="504.29" cy="628.77" r="0.79" fill="#dce9f5" opacity="0.4" /><circle cx="117.97" cy="323.28" r="1.09" fill="#dce9f5" opacity="0.49" /><circle cx="706.89" cy="429.49" r="1.84" fill="#dce9f5" opacity="0.15" /><circle cx="706.89" cy="429.49" r="6.26" fill="#dce9f5" opacity="0.01" /><circle cx="84.93" cy="103.35" r="1.21" fill="#dce9f5" opacity="0.66" /><circle cx="1105.11" cy="543.28" r="2.05" fill="#dce9f5" opacity="0.38" /><circle cx="1105.11" cy="543.28" r="6.97" fill="#dce9f5" opacity="0.03" /><circle cx="899" cy="311.84" r="0.57" fill="#dce9f5" opacity="0.3" /><circle cx="1067.47" cy="410.6" r="1.71" fill="#dce9f5" opacity="0.37" /><circle cx="1067.47" cy="410.6" r="5.81" fill="#dce9f5" opacity="0.03" /><circle cx="862.26" cy="369.09" r="1.27" fill="#dce9f5" opacity="0.44" /><circle cx="815.37" cy="399.12" r="1.65" fill="#dce9f5" opacity="0.24" /><circle cx="815.37" cy="399.12" r="5.61" fill="#dce9f5" opacity="0.02" /><circle cx="694.7" cy="158.18" r="0.8" fill="#dce9f5" opacity="0.2" /><circle cx="80.92" cy="589.59" r="0.74" fill="#dce9f5" opacity="0.27" /><circle cx="784.54" cy="389.93" r="0.57" fill="#dce9f5" opacity="0.36" /><circle cx="1138.49" cy="348.75" r="1.24" fill="#dce9f5" opacity="0.28" /><circle cx="169.62" cy="610.49" r="1.6" fill="#dce9f5" opacity="0.7" /><circle cx="128.45" cy="562.5" r="0.75" fill="#dce9f5" opacity="0.45" /><circle cx="1003.14" cy="151.58" r="0.62" fill="#dce9f5" opacity="0.71" /><circle cx="846.58" cy="624.77" r="1.49" fill="#dce9f5" opacity="0.3" /><circle cx="653.06" cy="64.63" r="1.83" fill="#dce9f5" opacity="0.45" /><circle cx="653.06" cy="64.63" r="6.22" fill="#dce9f5" opacity="0.04" /><circle cx="774.48" cy="282.1" r="1.67" fill="#dce9f5" opacity="0.43" /><circle cx="774.48" cy="282.1" r="5.68" fill="#dce9f5" opacity="0.03" /><circle cx="847.59" cy="367" r="2.03" fill="#dce9f5" opacity="0.73" /><circle cx="847.59" cy="367" r="6.9" fill="#dce9f5" opacity="0.06" /><circle cx="671.26" cy="52.36" r="0.8" fill="#dce9f5" opacity="0.27" /><circle cx="950.74" cy="577.82" r="0.6" fill="#dce9f5" opacity="0.15" /><circle cx="964.38" cy="87.4" r="1.68" fill="#dce9f5" opacity="0.18" /><circle cx="964.38" cy="87.4" r="5.71" fill="#dce9f5" opacity="0.01" /><circle cx="754.81" cy="401.11" r="1.98" fill="#dce9f5" opacity="0.64" /><circle cx="754.81" cy="401.11" r="6.73" fill="#dce9f5" opacity="0.05" /><circle cx="971.18" cy="359.6" r="0.54" fill="#dce9f5" opacity="0.68" /><circle cx="194.65" cy="466.35" r="2.01" fill="#dce9f5" opacity="0.18" /><circle cx="194.65" cy="466.35" r="6.83" fill="#dce9f5" opacity="0.01" /><circle cx="387.8" cy="197.53" r="1.23" fill="#dce9f5" opacity="0.65" /><circle cx="906.31" cy="119.98" r="1.03" fill="#dce9f5" opacity="0.39" /><circle cx="544.73" cy="381.84" r="1.06" fill="#dce9f5" opacity="0.38" /><circle cx="847.15" cy="519.05" r="1.9" fill="#dce9f5" opacity="0.38" /><circle cx="847.15" cy="519.05" r="6.46" fill="#dce9f5" opacity="0.03" /><circle cx="983.28" cy="84.99" r="0.62" fill="#dce9f5" opacity="0.15" /><circle cx="776.94" cy="93.26" r="0.64" fill="#dce9f5" opacity="0.39" /><circle cx="1040.71" cy="215.25" r="1.32" fill="#dce9f5" opacity="0.24" /><circle cx="147.47" cy="435.09" r="0.89" fill="#dce9f5" opacity="0.69" /><circle cx="385.58" cy="68.44" r="0.84" fill="#dce9f5" opacity="0.19" /><circle cx="1046.05" cy="100.31" r="2.05" fill="#dce9f5" opacity="0.31" /><circle cx="1046.05" cy="100.31" r="6.97" fill="#dce9f5" opacity="0.02" /><circle cx="568.67" cy="90.35" r="0.82" fill="#dce9f5" opacity="0.4" /><circle cx="960.95" cy="167.01" r="1.77" fill="#dce9f5" opacity="0.72" /><circle cx="960.95" cy="167.01" r="6.02" fill="#dce9f5" opacity="0.06" /><circle cx="752.99" cy="53.68" r="1.68" fill="#dce9f5" opacity="0.59" /><circle cx="752.99" cy="53.68" r="5.71" fill="#dce9f5" opacity="0.05" /><circle cx="245.57" cy="504.19" r="1" fill="#dce9f5" opacity="0.59" /><circle cx="343.21" cy="24.39" r="1.03" fill="#dce9f5" opacity="0.57" /><circle cx="870.07" cy="495.28" r="0.82" fill="#dce9f5" opacity="0.32" /><circle cx="903.65" cy="540.96" r="1.14" fill="#dce9f5" opacity="0.4" /><circle cx="233.12" cy="48.06" r="1.26" fill="#dce9f5" opacity="0.35" /><circle cx="1089.87" cy="181.76" r="0.91" fill="#dce9f5" opacity="0.56" /><circle cx="652.92" cy="282.29" r="1.26" fill="#dce9f5" opacity="0.58" /><circle cx="612.48" cy="96.42" r="1.23" fill="#dce9f5" opacity="0.59" /><circle cx="562.65" cy="57.76" r="1.66" fill="#dce9f5" opacity="0.56" /><circle cx="562.65" cy="57.76" r="5.64" fill="#dce9f5" opacity="0.04" /><circle cx="747.84" cy="49.74" r="0.85" fill="#dce9f5" opacity="0.21" /><circle cx="289.01" cy="381.87" r="1.98" fill="#dce9f5" opacity="0.74" /><circle cx="289.01" cy="381.87" r="6.73" fill="#dce9f5" opacity="0.06" /><circle cx="381.69" cy="310.25" r="1.25" fill="#dce9f5" opacity="0.35" /><circle cx="764.54" cy="335.88" r="1.63" fill="#dce9f5" opacity="0.22" /><circle cx="764.54" cy="335.88" r="5.54" fill="#dce9f5" opacity="0.02" /><circle cx="417.87" cy="588.52" r="0.52" fill="#dce9f5" opacity="0.5" /><circle cx="1185.58" cy="272.57" r="1.63" fill="#dce9f5" opacity="0.24" /><circle cx="1185.58" cy="272.57" r="5.54" fill="#dce9f5" opacity="0.02" /><circle cx="578.14" cy="336.34" r="0.96" fill="#dce9f5" opacity="0.6" /><circle cx="903.45" cy="601.49" r="0.76" fill="#dce9f5" opacity="0.66" /><circle cx="1046.73" cy="399.03" r="0.71" fill="#dce9f5" opacity="0.59" /><circle cx="60.61" cy="602.14" r="0.68" fill="#dce9f5" opacity="0.49" /><circle cx="723.12" cy="80.26" r="1.54" fill="#dce9f5" opacity="0.33" /><circle cx="739.94" cy="254.68" r="1.24" fill="#dce9f5" opacity="0.2" /><circle cx="791" cy="343.69" r="0.77" fill="#dce9f5" opacity="0.64" /><circle cx="136.81" cy="493.13" r="1.24" fill="#dce9f5" opacity="0.55" /><circle cx="300.04" cy="107.28" r="0.71" fill="#dce9f5" opacity="0.44" /><circle cx="836.24" cy="535.55" r="1.65" fill="#dce9f5" opacity="0.29" /><circle cx="836.24" cy="535.55" r="5.61" fill="#dce9f5" opacity="0.02" /><circle cx="987.65" cy="83.5" r="1" fill="#dce9f5" opacity="0.63" /><circle cx="311.1" cy="312.69" r="1.34" fill="#dce9f5" opacity="0.35" /><circle cx="693.4" cy="481.65" r="0.52" fill="#dce9f5" opacity="0.21" /><circle cx="899.91" cy="320.99" r="1.91" fill="#dce9f5" opacity="0.6" /><circle cx="899.91" cy="320.99" r="6.49" fill="#dce9f5" opacity="0.05" /><circle cx="358.87" cy="106.68" r="0.81" fill="#dce9f5" opacity="0.45" /><circle cx="815.55" cy="203.06" r="0.96" fill="#dce9f5" opacity="0.21" /><circle cx="142.89" cy="154.75" r="0.51" fill="#dce9f5" opacity="0.26" /><circle cx="420.05" cy="619.85" r="1.37" fill="#dce9f5" opacity="0.21" /><circle cx="767.48" cy="592.19" r="1.76" fill="#dce9f5" opacity="0.42" /><circle cx="767.48" cy="592.19" r="5.98" fill="#dce9f5" opacity="0.03" /><circle cx="1063.41" cy="76.64" r="0.91" fill="#dce9f5" opacity="0.6" /><circle cx="760.02" cy="620.6" r="1.02" fill="#dce9f5" opacity="0.39" /><circle cx="954.61" cy="387.33" r="1.93" fill="#dce9f5" opacity="0.71" /><circle cx="954.61" cy="387.33" r="6.56" fill="#dce9f5" opacity="0.06" /><circle cx="1109.71" cy="206.78" r="1.48" fill="#dce9f5" opacity="0.48" /><circle cx="1180.09" cy="233.73" r="1.73" fill="#dce9f5" opacity="0.57" /><circle cx="1180.09" cy="233.73" r="5.88" fill="#dce9f5" opacity="0.05" /><circle cx="1066.82" cy="542.55" r="0.92" fill="#dce9f5" opacity="0.61" /><circle cx="721.58" cy="110.97" r="1.51" fill="#dce9f5" opacity="0.34" /><circle cx="508.43" cy="484.97" r="0.89" fill="#dce9f5" opacity="0.47" /><circle cx="555.56" cy="63.19" r="2.01" fill="#dce9f5" opacity="0.45" /><circle cx="555.56" cy="63.19" r="6.83" fill="#dce9f5" opacity="0.04" /><circle cx="557.33" cy="365.38" r="1.42" fill="#dce9f5" opacity="0.51" /><circle cx="397.31" cy="504.58" r="1.83" fill="#dce9f5" opacity="0.17" /><circle cx="397.31" cy="504.58" r="6.22" fill="#dce9f5" opacity="0.01" /><circle cx="1006.33" cy="227.09" r="0.97" fill="#dce9f5" opacity="0.22" /><circle cx="676.96" cy="628.91" r="1.67" fill="#dce9f5" opacity="0.21" /><circle cx="676.96" cy="628.91" r="5.68" fill="#dce9f5" opacity="0.02" /><circle cx="47.18" cy="63.26" r="1.28" fill="#dce9f5" opacity="0.41" /><circle cx="277.67" cy="122.94" r="1.82" fill="#dce9f5" opacity="0.7" /><circle cx="277.67" cy="122.94" r="6.19" fill="#dce9f5" opacity="0.06" /><circle cx="634.99" cy="471.15" r="1.23" fill="#dce9f5" opacity="0.22" /><circle cx="800.52" cy="536.45" r="1.18" fill="#dce9f5" opacity="0.6" /><circle cx="306.02" cy="27.56" r="0.86" fill="#dce9f5" opacity="0.53" /><circle cx="765.24" cy="309.22" r="1.19" fill="#dce9f5" opacity="0.39" /><circle cx="795.04" cy="297.53" r="1.27" fill="#dce9f5" opacity="0.16" /><circle cx="405.91" cy="466.57" r="1.34" fill="#dce9f5" opacity="0.63" /><circle cx="769.48" cy="487.15" r="0.75" fill="#dce9f5" opacity="0.27" /><circle cx="537.73" cy="566.45" r="0.54" fill="#dce9f5" opacity="0.26" /><circle cx="914.36" cy="402.13" r="0.55" fill="#dce9f5" opacity="0.69" /><circle cx="987.24" cy="471.79" r="1.06" fill="#dce9f5" opacity="0.32" /><circle cx="1071.87" cy="127.74" r="0.96" fill="#dce9f5" opacity="0.41" /><circle cx="531.66" cy="611.42" r="1.13" fill="#dce9f5" opacity="0.37" /><circle cx="990.67" cy="198.73" r="1.16" fill="#dce9f5" opacity="0.47" /><circle cx="396.57" cy="286.72" r="1.03" fill="#dce9f5" opacity="0.35" /><circle cx="318.16" cy="63.4" r="1.15" fill="#dce9f5" opacity="0.18" /><circle cx="860.7" cy="378.03" r="1.45" fill="#dce9f5" opacity="0.27" /><circle cx="640.15" cy="3.96" r="1.38" fill="#dce9f5" opacity="0.61" /><circle cx="146.96" cy="8.35" r="1.39" fill="#dce9f5" opacity="0.2" /><circle cx="152.37" cy="215.13" r="1.71" fill="#dce9f5" opacity="0.37" /><circle cx="152.37" cy="215.13" r="5.81" fill="#dce9f5" opacity="0.03" /><circle cx="766.71" cy="192.33" r="1.18" fill="#dce9f5" opacity="0.57" /><circle cx="266.15" cy="309.56" r="1.19" fill="#dce9f5" opacity="0.33" /><circle cx="962.08" cy="357.54" r="0.59" fill="#dce9f5" opacity="0.32" /><circle cx="552.32" cy="14" r="1.7" fill="#dce9f5" opacity="0.6" /><circle cx="552.32" cy="14" r="5.78" fill="#dce9f5" opacity="0.05" /><circle cx="737.01" cy="94.9" r="1.87" fill="#dce9f5" opacity="0.51" /><circle cx="737.01" cy="94.9" r="6.36" fill="#dce9f5" opacity="0.04" /><circle cx="265.62" cy="14.16" r="1.91" fill="#dce9f5" opacity="0.29" /><circle cx="265.62" cy="14.16" r="6.49" fill="#dce9f5" opacity="0.02" /><circle cx="724" cy="67.19" r="1.04" fill="#dce9f5" opacity="0.32" /><circle cx="762.17" cy="228.01" r="0.67" fill="#dce9f5" opacity="0.56" /><circle cx="312.49" cy="127.71" r="1.22" fill="#dce9f5" opacity="0.42" /><circle cx="631.07" cy="320.32" r="1.37" fill="#dce9f5" opacity="0.65" /><circle cx="694.52" cy="123.31" r="1.7" fill="#dce9f5" opacity="0.59" /><circle cx="694.52" cy="123.31" r="5.78" fill="#dce9f5" opacity="0.05" /><circle cx="759.94" cy="284.32" r="0.96" fill="#dce9f5" opacity="0.27" />
  <circle cx="936" cy="37.8" r="300" fill="url(#halo)" />
  <path d="M -40 541.8 A 120 120 0 0 1 104 443.4" fill="none" stroke="#c084fc" stroke-width="2.6" opacity="0.6" /><path d="M -40 541.8 A 198 198 0 0 1 197.6 379.43999999999994" fill="none" stroke="#c084fc" stroke-width="2.3" opacity="0.52" /><path d="M -40 541.8 A 276 276 0 0 1 291.2 315.47999999999996" fill="none" stroke="#c084fc" stroke-width="2" opacity="0.44" /><path d="M -40 541.8 A 354 354 0 0 1 384.8 251.51999999999998" fill="none" stroke="#c084fc" stroke-width="1.7" opacity="0.36" /><path d="M -40 541.8 A 432 432 0 0 1 478.4 187.56" fill="none" stroke="#c084fc" stroke-width="1.4" opacity="0.28" /><path d="M -40 541.8 A 510 510 0 0 1 572 123.59999999999997" fill="none" stroke="#c084fc" stroke-width="1.1" opacity="0.2" /><rect x="770" y="482.01" width="26" height="37.99" rx="2" fill="#c084fc" opacity="0.44" /><rect x="820" y="398.44" width="26" height="121.56" rx="2" fill="#c084fc" opacity="0.43" /><rect x="870" y="427.36" width="26" height="92.64" rx="2" fill="#c084fc" opacity="0.27" /><rect x="920" y="413.37" width="26" height="106.63" rx="2" fill="#c084fc" opacity="0.38" /><rect x="970" y="440.1" width="26" height="79.9" rx="2" fill="#c084fc" opacity="0.32" /><rect x="1020" y="478.87" width="26" height="41.13" rx="2" fill="#c084fc" opacity="0.4" /><rect x="1070" y="417.6" width="26" height="102.4" rx="2" fill="#c084fc" opacity="0.43" />
  <rect y="378" width="1200" height="252" fill="url(#fade)" />
  <g font-family="ui-monospace, SFMono-Regular, Menlo, monospace">
    <text x="72" y="538" fill="#c084fc" font-size="19" letter-spacing="6" opacity="0.95">BP-LOG 15</text>
    <text x="72" y="568" fill="#9fb4c6" font-size="15" letter-spacing="3.4" opacity="0.72">MIGRATION</text>
    <line x1="72" y1="508" x2="1128" y2="508" stroke="#c084fc" stroke-width="1" opacity="0.22" />
  </g>
</svg>
