<svg xmlns="http://www.w3.org/2000/svg" viewBox="0 0 1200 630" width="1200" height="630" role="img" aria-label="thirty day design tokens">
  <title>thirty day design tokens</title>
  <defs>
    <linearGradient id="sky" x1="0" y1="0" x2="0.35" y2="1">
      <stop offset="0" stop-color="#0a1522" />
      <stop offset="0.55" stop-color="#0c1b2b" />
      <stop offset="1" stop-color="#050b13" />
    </linearGradient>
    <radialGradient id="planet" cx="0.34" cy="0.3" r="0.85">
      <stop offset="0" stop-color="#f472b6" stop-opacity="0.95" />
      <stop offset="0.55" stop-color="#f472b6" stop-opacity="0.42" />
      <stop offset="1" stop-color="#04080e" stop-opacity="0.9" />
    </radialGradient>
    <radialGradient id="halo" cx="0.5" cy="0.5" r="0.5">
      <stop offset="0" stop-color="#f472b6" stop-opacity="0.34" />
      <stop offset="1" stop-color="#f472b6" stop-opacity="0" />
    </radialGradient>
    <linearGradient id="fade" x1="0" y1="0" x2="0" y2="1">
      <stop offset="0" stop-color="#050b13" stop-opacity="0" />
      <stop offset="1" stop-color="#050b13" stop-opacity="0.9" />
    </linearGradient>
  </defs>

  <rect width="1200" height="630" fill="url(#sky)" />
  <circle cx="545.22" cy="541.98" r="1.51" fill="#dce9f5" opacity="0.25" /><circle cx="319.8" cy="115.72" r="1.3" fill="#dce9f5" opacity="0.55" /><circle cx="1184.42" cy="217.48" r="1" fill="#dce9f5" opacity="0.39" /><circle cx="1199.79" cy="473.33" r="0.76" fill="#dce9f5" opacity="0.49" /><circle cx="747.65" cy="181.54" r="1.03" fill="#dce9f5" opacity="0.33" /><circle cx="521.17" cy="74.96" r="1.55" fill="#dce9f5" opacity="0.37" /><circle cx="981.21" cy="247" r="0.94" fill="#dce9f5" opacity="0.27" /><circle cx="548.6" cy="229.15" r="0.62" fill="#dce9f5" opacity="0.51" /><circle cx="188.37" cy="321.08" r="0.69" fill="#dce9f5" opacity="0.21" /><circle cx="369.76" cy="287.35" r="1" fill="#dce9f5" opacity="0.3" /><circle cx="433.89" cy="272.48" r="0.89" fill="#dce9f5" opacity="0.32" /><circle cx="1076.33" cy="19.01" r="0.81" fill="#dce9f5" opacity="0.75" /><circle cx="1072.31" cy="227.14" r="0.7" fill="#dce9f5" opacity="0.5" /><circle cx="150.91" cy="303.65" r="0.53" fill="#dce9f5" opacity="0.67" /><circle cx="442.84" cy="44.98" r="1.14" fill="#dce9f5" opacity="0.38" /><circle cx="978.53" cy="224.75" r="1.49" fill="#dce9f5" opacity="0.16" /><circle cx="685.54" cy="209.78" r="1.77" fill="#dce9f5" opacity="0.73" /><circle cx="685.54" cy="209.78" r="6.02" fill="#dce9f5" opacity="0.06" /><circle cx="1045.76" cy="311.61" r="2.1" fill="#dce9f5" opacity="0.42" /><circle cx="1045.76" cy="311.61" r="7.14" fill="#dce9f5" opacity="0.03" /><circle cx="860.49" cy="289.39" r="1.38" fill="#dce9f5" opacity="0.47" /><circle cx="601.76" cy="338.21" r="1.03" fill="#dce9f5" opacity="0.63" /><circle cx="141.89" cy="105.26" r="0.69" fill="#dce9f5" opacity="0.35" /><circle cx="21.8" cy="299.21" r="0.56" fill="#dce9f5" opacity="0.61" /><circle cx="50.57" cy="258.12" r="1.7" fill="#dce9f5" opacity="0.53" /><circle cx="50.57" cy="258.12" r="5.78" fill="#dce9f5" opacity="0.04" /><circle cx="682.72" cy="106.62" r="1.08" fill="#dce9f5" opacity="0.54" /><circle cx="75.5" cy="74.85" r="1.32" fill="#dce9f5" opacity="0.54" /><circle cx="452.7" cy="386.65" r="0.95" fill="#dce9f5" opacity="0.2" /><circle cx="1063.67" cy="269.86" r="0.72" fill="#dce9f5" opacity="0.37" /><circle cx="1166.96" cy="584.1" r="0.95" fill="#dce9f5" opacity="0.72" /><circle cx="189.82" cy="224.86" r="1.97" fill="#dce9f5" opacity="0.2" /><circle cx="189.82" cy="224.86" r="6.7" fill="#dce9f5" opacity="0.02" /><circle cx="116.48" cy="270.95" r="1.34" fill="#dce9f5" opacity="0.36" /><circle cx="560.48" cy="405.13" r="1.98" fill="#dce9f5" opacity="0.26" /><circle cx="560.48" cy="405.13" r="6.73" fill="#dce9f5" opacity="0.02" /><circle cx="180.57" cy="376.9" r="0.57" fill="#dce9f5" opacity="0.21" /><circle cx="432.06" cy="455.46" r="0.65" fill="#dce9f5" opacity="0.39" /><circle cx="910.46" cy="448.32" r="1.25" fill="#dce9f5" opacity="0.51" /><circle cx="823.59" cy="167.83" r="1.62" fill="#dce9f5" opacity="0.16" /><circle cx="823.59" cy="167.83" r="5.51" fill="#dce9f5" opacity="0.01" /><circle cx="1151.09" cy="474.09" r="1.05" fill="#dce9f5" opacity="0.57" /><circle cx="492.63" cy="17.35" r="2.02" fill="#dce9f5" opacity="0.16" /><circle cx="492.63" cy="17.35" r="6.87" fill="#dce9f5" opacity="0.01" /><circle cx="666.34" cy="548.21" r="1.85" fill="#dce9f5" opacity="0.57" /><circle cx="666.34" cy="548.21" r="6.29" fill="#dce9f5" opacity="0.05" /><circle cx="864.07" cy="51.54" r="0.96" fill="#dce9f5" opacity="0.38" /><circle cx="452.61" cy="534.85" r="1.49" fill="#dce9f5" opacity="0.67" /><circle cx="1199.39" cy="540.35" r="1.3" fill="#dce9f5" opacity="0.47" /><circle cx="989.16" cy="155.48" r="1.43" fill="#dce9f5" opacity="0.35" /><circle cx="396.67" cy="362.63" r="0.75" fill="#dce9f5" opacity="0.63" /><circle cx="117.7" cy="325.53" r="1.39" fill="#dce9f5" opacity="0.42" /><circle cx="621.05" cy="425.91" r="0.8" fill="#dce9f5" opacity="0.67" /><circle cx="1062.45" cy="243.96" r="0.69" fill="#dce9f5" opacity="0.61" /><circle cx="129.69" cy="30.13" r="1.95" fill="#dce9f5" opacity="0.31" /><circle cx="129.69" cy="30.13" r="6.63" fill="#dce9f5" opacity="0.02" /><circle cx="1103.08" cy="358.7" r="1.86" fill="#dce9f5" opacity="0.5" /><circle cx="1103.08" cy="358.7" r="6.32" fill="#dce9f5" opacity="0.04" /><circle cx="1055.72" cy="443.98" r="1.81" fill="#dce9f5" opacity="0.22" /><circle cx="1055.72" cy="443.98" r="6.15" fill="#dce9f5" opacity="0.02" /><circle cx="1074.78" cy="333.62" r="0.94" fill="#dce9f5" opacity="0.69" /><circle cx="245.83" cy="619.39" r="0.62" fill="#dce9f5" opacity="0.5" /><circle cx="691.67" cy="240.02" r="1" fill="#dce9f5" opacity="0.18" /><circle cx="909.46" cy="370.46" r="1.06" fill="#dce9f5" opacity="0.57" /><circle cx="850.17" cy="400.17" r="1.68" fill="#dce9f5" opacity="0.23" /><circle cx="850.17" cy="400.17" r="5.71" fill="#dce9f5" opacity="0.02" /><circle cx="777.93" cy="43.23" r="1.12" fill="#dce9f5" opacity="0.19" /><circle cx="90.85" cy="97.75" r="1.36" fill="#dce9f5" opacity="0.6" /><circle cx="582.76" cy="129.25" r="1.8" fill="#dce9f5" opacity="0.71" /><circle cx="582.76" cy="129.25" r="6.12" fill="#dce9f5" opacity="0.06" /><circle cx="20.56" cy="565.21" r="1.65" fill="#dce9f5" opacity="0.18" /><circle cx="20.56" cy="565.21" r="5.61" fill="#dce9f5" opacity="0.01" /><circle cx="167.32" cy="319.1" r="0.92" fill="#dce9f5" opacity="0.62" /><circle cx="744.18" cy="398.14" r="0.7" fill="#dce9f5" opacity="0.33" /><circle cx="4.5" cy="301.6" r="1.15" fill="#dce9f5" opacity="0.35" /><circle cx="307.48" cy="48.24" r="0.87" fill="#dce9f5" opacity="0.41" /><circle cx="963.31" cy="538.85" r="2.02" fill="#dce9f5" opacity="0.18" /><circle cx="963.31" cy="538.85" r="6.87" fill="#dce9f5" opacity="0.01" /><circle cx="552.45" cy="490.07" r="1.67" fill="#dce9f5" opacity="0.57" /><circle cx="552.45" cy="490.07" r="5.68" fill="#dce9f5" opacity="0.05" /><circle cx="198.03" cy="453.92" r="1.3" fill="#dce9f5" opacity="0.7" /><circle cx="44.98" cy="139.76" r="1.85" fill="#dce9f5" opacity="0.56" /><circle cx="44.98" cy="139.76" r="6.29" fill="#dce9f5" opacity="0.04" /><circle cx="1068.44" cy="15.15" r="1.47" fill="#dce9f5" opacity="0.39" /><circle cx="2.8" cy="131.22" r="0.98" fill="#dce9f5" opacity="0.17" /><circle cx="456.4" cy="345.81" r="0.61" fill="#dce9f5" opacity="0.42" /><circle cx="322.17" cy="414.45" r="1.62" fill="#dce9f5" opacity="0.25" /><circle cx="322.17" cy="414.45" r="5.51" fill="#dce9f5" opacity="0.02" /><circle cx="582.72" cy="224.32" r="1.98" fill="#dce9f5" opacity="0.74" /><circle cx="582.72" cy="224.32" r="6.73" fill="#dce9f5" opacity="0.06" /><circle cx="803.85" cy="372.43" r="0.81" fill="#dce9f5" opacity="0.32" /><circle cx="664.01" cy="190.81" r="1.58" fill="#dce9f5" opacity="0.16" /><circle cx="721.85" cy="225.62" r="1.36" fill="#dce9f5" opacity="0.51" /><circle cx="295.09" cy="205.3" r="1.33" fill="#dce9f5" opacity="0.53" /><circle cx="666.57" cy="30.1" r="1.97" fill="#dce9f5" opacity="0.41" /><circle cx="666.57" cy="30.1" r="6.7" fill="#dce9f5" opacity="0.03" /><circle cx="310.05" cy="181.69" r="0.69" fill="#dce9f5" opacity="0.56" /><circle cx="915.51" cy="271.06" r="0.83" fill="#dce9f5" opacity="0.16" /><circle cx="351.32" cy="391.67" r="1.51" fill="#dce9f5" opacity="0.51" /><circle cx="322.48" cy="27.59" r="1.83" fill="#dce9f5" opacity="0.19" /><circle cx="322.48" cy="27.59" r="6.22" fill="#dce9f5" opacity="0.02" /><circle cx="234.07" cy="573.95" r="0.59" fill="#dce9f5" opacity="0.33" /><circle cx="1151.45" cy="248.85" r="0.63" fill="#dce9f5" opacity="0.17" /><circle cx="1192.24" cy="429.02" r="1.15" fill="#dce9f5" opacity="0.58" /><circle cx="985.59" cy="320.8" r="2.04" fill="#dce9f5" opacity="0.48" /><circle cx="985.59" cy="320.8" r="6.94" fill="#dce9f5" opacity="0.04" /><circle cx="752.01" cy="129.17" r="2.1" fill="#dce9f5" opacity="0.39" /><circle cx="752.01" cy="129.17" r="7.14" fill="#dce9f5" opacity="0.03" /><circle cx="184.9" cy="578.4" r="1.34" fill="#dce9f5" opacity="0.69" /><circle cx="410.82" cy="580.48" r="0.77" fill="#dce9f5" opacity="0.22" /><circle cx="1187.17" cy="409.19" r="1.09" fill="#dce9f5" opacity="0.69" /><circle cx="470.31" cy="477.55" r="2.03" fill="#dce9f5" opacity="0.5" /><circle cx="470.31" cy="477.55" r="6.9" fill="#dce9f5" opacity="0.04" /><circle cx="676.94" cy="12.88" r="1.69" fill="#dce9f5" opacity="0.61" /><circle cx="676.94" cy="12.88" r="5.75" fill="#dce9f5" opacity="0.05" /><circle cx="727.07" cy="138.51" r="2.04" fill="#dce9f5" opacity="0.75" /><circle cx="727.07" cy="138.51" r="6.94" fill="#dce9f5" opacity="0.06" /><circle cx="907.77" cy="592.69" r="0.88" fill="#dce9f5" opacity="0.3" /><circle cx="195.31" cy="521.03" r="1.17" fill="#dce9f5" opacity="0.2" /><circle cx="854.31" cy="600.63" r="1.68" fill="#dce9f5" opacity="0.6" /><circle cx="854.31" cy="600.63" r="5.71" fill="#dce9f5" opacity="0.05" /><circle cx="48.76" cy="564.2" r="1.62" fill="#dce9f5" opacity="0.19" /><circle cx="48.76" cy="564.2" r="5.51" fill="#dce9f5" opacity="0.02" /><circle cx="273.01" cy="25.39" r="1.88" fill="#dce9f5" opacity="0.67" /><circle cx="273.01" cy="25.39" r="6.39" fill="#dce9f5" opacity="0.05" /><circle cx="1189.75" cy="589.93" r="0.54" fill="#dce9f5" opacity="0.15" /><circle cx="34.07" cy="471.02" r="1.84" fill="#dce9f5" opacity="0.18" /><circle cx="34.07" cy="471.02" r="6.26" fill="#dce9f5" opacity="0.01" /><circle cx="227.54" cy="330.37" r="1.37" fill="#dce9f5" opacity="0.67" /><circle cx="497.43" cy="149.03" r="1.54" fill="#dce9f5" opacity="0.56" /><circle cx="195.88" cy="498.38" r="1.92" fill="#dce9f5" opacity="0.36" /><circle cx="195.88" cy="498.38" r="6.53" fill="#dce9f5" opacity="0.03" /><circle cx="225.42" cy="156.87" r="1.96" fill="#dce9f5" opacity="0.18" /><circle cx="225.42" cy="156.87" r="6.66" fill="#dce9f5" opacity="0.01" /><circle cx="467.26" cy="503.64" r="1.53" fill="#dce9f5" opacity="0.29" /><circle cx="267.65" cy="11.54" r="1.76" fill="#dce9f5" opacity="0.43" /><circle cx="267.65" cy="11.54" r="5.98" fill="#dce9f5" opacity="0.03" /><circle cx="325.13" cy="299.16" r="0.86" fill="#dce9f5" opacity="0.69" /><circle cx="1045.45" cy="235.04" r="1.53" fill="#dce9f5" opacity="0.27" /><circle cx="323.26" cy="409.98" r="0.5" fill="#dce9f5" opacity="0.72" /><circle cx="993.94" cy="8.86" r="1.42" fill="#dce9f5" opacity="0.46" /><circle cx="773.15" cy="91.22" r="2.01" fill="#dce9f5" opacity="0.52" /><circle cx="773.15" cy="91.22" r="6.83" fill="#dce9f5" opacity="0.04" /><circle cx="526.63" cy="456.58" r="0.54" fill="#dce9f5" opacity="0.2" /><circle cx="908.85" cy="598.53" r="1.06" fill="#dce9f5" opacity="0.59" /><circle cx="23.13" cy="386.66" r="1.58" fill="#dce9f5" opacity="0.25" /><circle cx="737.74" cy="363.86" r="1.74" fill="#dce9f5" opacity="0.23" /><circle cx="737.74" cy="363.86" r="5.92" fill="#dce9f5" opacity="0.02" /><circle cx="1068.61" cy="244.55" r="1.39" fill="#dce9f5" opacity="0.73" /><circle cx="55.69" cy="298.2" r="1.26" fill="#dce9f5" opacity="0.22" /><circle cx="1.27" cy="594.5" r="2.01" fill="#dce9f5" opacity="0.18" /><circle cx="1.27" cy="594.5" r="6.83" fill="#dce9f5" opacity="0.01" /><circle cx="289.18" cy="536" r="1.33" fill="#dce9f5" opacity="0.55" /><circle cx="562" cy="161.2" r="0.62" fill="#dce9f5" opacity="0.27" /><circle cx="1001.47" cy="574.73" r="2.03" fill="#dce9f5" opacity="0.57" /><circle cx="1001.47" cy="574.73" r="6.9" fill="#dce9f5" opacity="0.05" /><circle cx="1096.7" cy="544.23" r="1.34" fill="#dce9f5" opacity="0.47" /><circle cx="300.54" cy="26.69" r="1.01" fill="#dce9f5" opacity="0.18" /><circle cx="521.24" cy="30.23" r="0.56" fill="#dce9f5" opacity="0.32" /><circle cx="1001.54" cy="203.01" r="1.26" fill="#dce9f5" opacity="0.41" /><circle cx="780.21" cy="52.05" r="1.05" fill="#dce9f5" opacity="0.27" /><circle cx="598.27" cy="622.14" r="1.15" fill="#dce9f5" opacity="0.49" /><circle cx="526.05" cy="426.77" r="2.08" fill="#dce9f5" opacity="0.3" /><circle cx="526.05" cy="426.77" r="7.07" fill="#dce9f5" opacity="0.02" /><circle cx="1060.05" cy="488.1" r="0.73" fill="#dce9f5" opacity="0.38" /><circle cx="638.8" cy="406.34" r="0.65" fill="#dce9f5" opacity="0.65" /><circle cx="611.28" cy="525.57" r="1.12" fill="#dce9f5" opacity="0.68" /><circle cx="302.1" cy="40.44" r="1.94" fill="#dce9f5" opacity="0.52" /><circle cx="302.1" cy="40.44" r="6.6" fill="#dce9f5" opacity="0.04" />
  <circle cx="936" cy="37.8" r="300" fill="url(#halo)" />
  <line x1="90" y1="315" x2="1110" y2="315" stroke="#f472b6" stroke-width="2" opacity="0.4" /><line x1="90" y1="315" x2="90" y2="241" stroke="#f472b6" stroke-width="2" opacity="0.8" /><circle cx="90" cy="315" r="9" fill="#f472b6" opacity="0.9" /><rect x="64" y="337" width="52" height="6.82" rx="3" fill="#f472b6" opacity="0.2" /><line x1="235.71" y1="315" x2="235.71" y2="275" stroke="#f472b6" stroke-width="2" opacity="0.4" /><circle cx="235.71" cy="315" r="6" fill="#f472b6" opacity="0.5" /><rect x="209.71" y="337" width="52" height="21.46" rx="3" fill="#f472b6" opacity="0.2" /><line x1="381.43" y1="315" x2="381.43" y2="241" stroke="#f472b6" stroke-width="2" opacity="0.8" /><circle cx="381.43" cy="315" r="9" fill="#f472b6" opacity="0.9" /><rect x="355.43" y="337" width="52" height="20.48" rx="3" fill="#f472b6" opacity="0.2" /><line x1="527.14" y1="315" x2="527.14" y2="275" stroke="#f472b6" stroke-width="2" opacity="0.4" /><circle cx="527.14" cy="315" r="6" fill="#f472b6" opacity="0.5" /><rect x="501.14" y="337" width="52" height="18.78" rx="3" fill="#f472b6" opacity="0.2" /><line x1="672.86" y1="315" x2="672.86" y2="241" stroke="#f472b6" stroke-width="2" opacity="0.8" /><circle cx="672.86" cy="315" r="9" fill="#f472b6" opacity="0.9" /><rect x="646.86" y="337" width="52" height="17.89" rx="3" fill="#f472b6" opacity="0.2" /><line x1="818.57" y1="315" x2="818.57" y2="275" stroke="#f472b6" stroke-width="2" opacity="0.4" /><circle cx="818.57" cy="315" r="6" fill="#f472b6" opacity="0.5" /><rect x="792.57" y="337" width="52" height="13.46" rx="3" fill="#f472b6" opacity="0.2" /><line x1="964.29" y1="315" x2="964.29" y2="241" stroke="#f472b6" stroke-width="2" opacity="0.8" /><circle cx="964.29" cy="315" r="9" fill="#f472b6" opacity="0.9" /><rect x="938.29" y="337" width="52" height="6.58" rx="3" fill="#f472b6" opacity="0.2" /><line x1="1110" y1="315" x2="1110" y2="275" stroke="#f472b6" stroke-width="2" opacity="0.4" /><circle cx="1110" cy="315" r="6" fill="#f472b6" opacity="0.5" /><rect x="1084" y="337" width="52" height="11.16" rx="3" fill="#f472b6" opacity="0.2" />
  <rect y="378" width="1200" height="252" fill="url(#fade)" />
  <g font-family="ui-monospace, SFMono-Regular, Menlo, monospace">
    <text x="72" y="538" fill="#f472b6" font-size="19" letter-spacing="6" opacity="0.95">BP-LOG 08</text>
    <text x="72" y="568" fill="#9fb4c6" font-size="15" letter-spacing="3.4" opacity="0.72">DESIGN SYSTEMS</text>
    <line x1="72" y1="508" x2="1128" y2="508" stroke="#f472b6" stroke-width="1" opacity="0.22" />
  </g>
</svg>
